<svg xmlns="http://www.w3.org/2000/svg" viewBox="0 0 618.95 698.86"><defs><style>.cls-1{fill:#c80f2e;}</style></defs><title>pantallaMesa de trabajo 1 copia 9</title><g id="USOS_INCORRECTES" data-name="USOS INCORRECTES"><path class="cls-1" d="M212.42,440.92l128,128A143.21,143.21,0,0,0,343,541.05L227.66,425.68Zm44-44L241.2,412.13l98.47,98.47A137.54,137.54,0,0,0,302.58,443Zm-72.82,72.82L299,585.09a144.88,144.88,0,0,0,27.82-2.67l-128-127.95Zm84.92,112-98.46-98.47L154.84,498.5,201,544.62a137.48,137.48,0,0,0,67.58,37.1M187.66,186.81c-8.35,12.31-9.73,12.61-9.73,12.61a11.75,11.75,0,0,0,12.81-4.82c8.37-12.35,9.8-12.61,9.8-12.61a11.67,11.67,0,0,0-12.88,4.82m41.85-43a4.41,4.41,0,1,0-4.41,4.41,4.41,4.41,0,0,0,4.41-4.41M282,304.72h9.79v-8.3H282v-9.79h-8.3v9.79H263.9v8.3h9.79v9.79h2.85v12.68h2.6V314.51H282Zm46.74,50.15-40.35,40.21-9.24-9.24c-15.73-15.73-20-35-21.56-59.18-.72-11.19-1.08-23.36-1.08-37.2V265.64h42.39v23.82c0,25.08,9.2,45.07,29.84,65.41M306.4,245.72l-4.8,11.61H200.12l-4.8-11.61a26.88,26.88,0,0,0,33-10,26.87,26.87,0,0,0,45,0,26.88,26.88,0,0,0,33,10m-11-36.2a40.53,40.53,0,0,0-2.49,30.39,19.15,19.15,0,0,1-14.89-12,6.86,6.86,0,1,0-9.28,0,19.13,19.13,0,0,1-35.72,0,6.85,6.85,0,1,0-9.28,0,19.07,19.07,0,0,1-17.86,12.27,18.86,18.86,0,0,1-2.66-.21,59.84,59.84,0,0,1,3.71-19.86c7.63-19.47,32.28-29.16,43.63-37.22,3.12-2.22,9.47-8.53,9.32-16.83a17.42,17.42,0,0,0-17.28-17.29c-8.93,0-22.23,10.14-28,16.11a11.86,11.86,0,0,0-6.51-5.21c5.6-9.74,7.63-18.78,9.15-28.86a31.05,31.05,0,0,0,31.15-4.06,35,35,0,0,0,25.07,10.54c.74,0,1.47,0,2.2-.07A37.35,37.35,0,0,0,288.38,162l-.54.38a61.21,61.21,0,0,0-10.52,12c-7.33,10.75-15,16.18-20.17,18.84a29.83,29.83,0,0,1-9.14,3.19,39,39,0,0,1,.89,8.28,40.3,40.3,0,0,1-2.7,14.54l7.2,2.79a47.91,47.91,0,0,0,3.23-17.33c0-.7,0-1.4-.05-2.11,7.14-2.78,17.79-9.12,27.6-23.52,8.09-11.87,17.16-16.59,24.45-18.29a40.56,40.56,0,0,0,.63,33.14,40.55,40.55,0,0,0-13.88,15.64m-92.25,56.12H248.2v23.82c0,7.08.07,21.93,1.1,37.74,1,15.56,3.2,30.36,9.43,43.74l-21.94,11V296.42H187.92Zm-15.39,39.09h40.75v81.39l-23.91,12c.6-13.16.81-32.61-1.87-47.53-3.1-17.27-10.48-35.68-15-45.86m100.64,102.1,52.2-52.16-3.44-3.22c-21-19.68-29.95-38.22-29.95-62V264l14.37-34.74,0,0a6.86,6.86,0,1,0-7.59-2,19.18,19.18,0,0,1-13,12.16,32.93,32.93,0,0,1,19.28-42.51,32.83,32.83,0,0,1,3.59-44.54,40.61,40.61,0,0,0-28.85,4.95,29.67,29.67,0,0,1-11.07-29.91A27.39,27.39,0,0,1,249,114.61h0a23.32,23.32,0,0,1-39.32.2c1.75,19.34-4.05,42.12-20.53,54.18l4.48,5.94a66.09,66.09,0,0,0,7.75-6.72,4.47,4.47,0,0,1,3.44-1.66,3.93,3.93,0,0,1,3.83,3.94,4.81,4.81,0,0,1-.74,2.43h0a17.1,17.1,0,0,0-1.79,7.62,17.28,17.28,0,0,0,1.65,7.35l6.75-3.17c-3.15-6.77,2.23-13.08,10.74-19.4,6.12-4.53,12.57-8.8,17.28-8.84A9.51,9.51,0,0,1,252.1,166c0,5.89-5.83,10.59-10.33,13.43-16.83,10.62-33.82,18.35-41.66,37a67.35,67.35,0,0,0-4.68,20.46,20.82,20.82,0,0,1-7.63-9.65,6.86,6.86,0,1,0-7.6,2l0,0,14.43,34.89-18,36.41s13.59,27.25,17.93,51.48c4.22,23.5.82,60,.82,60l67.22-33.75,0-.11a72.69,72.69,0,0,0,10.65,13.52l15.12,15.12"/></g></svg>